<svg xmlns="http://www.w3.org/2000/svg" xmlns:xlink="http://www.w3.org/1999/xlink" width="500" zoomAndPan="magnify" viewBox="0 0 375 374.999991" height="500" preserveAspectRatio="xMidYMid meet" version="1.0"><defs><g/><clipPath id="a4fe34ce9a"><path d="M 119.308594 140 L 188 140 L 188 200 L 119.308594 200 Z M 119.308594 140 " clip-rule="nonzero"/></clipPath><clipPath id="23150d1250"><path d="M 187 108.519531 L 255.808594 108.519531 L 255.808594 169 L 187 169 Z M 187 108.519531 " clip-rule="nonzero"/></clipPath></defs><rect x="-37.5" width="450" fill="#ffffff" y="-37.499999" height="449.999989" fill-opacity="1"/><rect x="-37.5" width="450" fill="#ffffff" y="-37.499999" height="449.999989" fill-opacity="1"/><rect x="-37.5" width="450" fill="#0f1120" y="-37.499999" height="449.999989" fill-opacity="1"/><g clip-path="url(#a4fe34ce9a)"><path fill="#0652e9" d="M 165.269531 182.492188 L 165.269531 190.777344 L 127.644531 173.351562 L 127.644531 166.628906 L 165.269531 149.203125 L 165.269531 157.488281 L 136.816406 169.910156 L 136.816406 170.066406 Z M 187.617188 140 L 124.691406 140 C 121.722656 140 119.3125 142.402344 119.3125 145.363281 L 119.3125 194.617188 C 119.3125 197.578125 121.722656 199.980469 124.691406 199.980469 L 170.148438 199.980469 L 187.617188 140 " fill-opacity="1" fill-rule="nonzero"/></g><g clip-path="url(#23150d1250)"><path fill="#62e1e9" d="M 247.488281 142.132812 L 209.863281 159.324219 L 209.863281 151.039062 L 238.945312 138.613281 L 238.945312 138.457031 L 209.863281 126.035156 L 209.863281 117.75 L 247.488281 134.941406 Z M 205.085938 108.546875 L 187.617188 168.527344 L 250.4375 168.527344 C 253.410156 168.527344 255.816406 166.125 255.816406 163.164062 L 255.816406 113.910156 C 255.816406 110.949219 253.410156 108.546875 250.4375 108.546875 L 205.085938 108.546875 " fill-opacity="1" fill-rule="nonzero"/></g><g fill="#ffffff" fill-opacity="1"><g transform="translate(56.76519, 236.784858)"><g><path d="M 20.367188 -21 L 13.683594 -6.472656 L 7.070312 -21 L 2.066406 -21 L 2.066406 0 L 6.683594 0 L 6.683594 -12.527344 L 12.355469 0 L 15.011719 0 L 20.71875 -12.492188 L 20.71875 0 L 25.335938 0 L 25.335938 -21 Z M 20.367188 -21 "/></g></g></g><g fill="#ffffff" fill-opacity="1"><g transform="translate(85.398394, 236.784858)"><g><path d="M 14.910156 0 L 19.84375 0 L 12.285156 -21 L 7.105469 -21 L -0.453125 0 L 4.480469 0 L 5.773438 -3.953125 L 13.613281 -3.953125 Z M 7 -7.804688 L 9.695312 -16.132812 L 12.390625 -7.804688 Z M 7 -7.804688 "/></g></g></g><g fill="#ffffff" fill-opacity="1"><g transform="translate(106.017714, 236.784858)"><g><path d="M 15.011719 -21 L -0.175781 -21 L -0.175781 -16.902344 L 5.144531 -16.902344 L 5.144531 0 L 9.730469 0 L 9.730469 -16.902344 L 15.011719 -16.902344 Z M 15.011719 -21 "/></g></g></g><g fill="#ffffff" fill-opacity="1"><g transform="translate(122.087667, 236.784858)"><g><path d="M 15.222656 -21 L 15.222656 -12.5625 L 6.683594 -12.5625 L 6.683594 -21 L 2.066406 -21 L 2.066406 0 L 6.683594 0 L 6.683594 -8.46875 L 15.222656 -8.46875 L 15.222656 0 L 19.808594 0 L 19.808594 -21 Z M 15.222656 -21 "/></g></g></g><g fill="#ffffff" fill-opacity="1"><g transform="translate(145.226634, 236.784858)"><g><path d="M 14.875 -16.9375 L 14.875 -21 L 2.238281 -21 L 2.238281 0 L 14.875 0 L 14.875 -4.058594 L 6.859375 -4.058594 L 6.859375 -8.46875 L 13.71875 -8.46875 L 13.71875 -12.527344 L 6.859375 -12.527344 L 6.859375 -16.9375 Z M 14.875 -16.9375 "/></g></g></g><g fill="#ffffff" fill-opacity="1"><g transform="translate(162.766381, 236.784858)"><g><path d="M 10.675781 0.28125 C 15.644531 0.28125 19.421875 -2.765625 19.421875 -6.71875 L 19.421875 -21 L 14.804688 -21 L 14.804688 -7.59375 C 14.804688 -5.460938 13.019531 -3.816406 10.675781 -3.816406 C 8.363281 -3.816406 6.578125 -5.460938 6.578125 -7.59375 L 6.578125 -21 L 1.960938 -21 L 1.960938 -6.71875 C 1.960938 -2.765625 5.773438 0.28125 10.675781 0.28125 Z M 10.675781 0.28125 "/></g></g></g><g fill="#ffffff" fill-opacity="1"><g transform="translate(185.38042, 236.784858)"><g><path d="M 8.539062 0.28125 C 12.457031 0.28125 15.785156 -2.03125 15.785156 -5.949219 C 15.785156 -13.71875 6.125 -11.792969 6.125 -15.433594 C 6.125 -16.625 7.035156 -17.183594 8.152344 -17.183594 C 9.34375 -17.183594 10.535156 -16.519531 11.582031 -15.363281 L 14.664062 -18.304688 C 13.125 -20.089844 10.777344 -21.277344 8.1875 -21.277344 C 4.863281 -21.277344 1.46875 -19.285156 1.46875 -15.082031 C 1.46875 -7.945312 11.164062 -9.660156 11.164062 -5.984375 C 11.164062 -4.828125 10.183594 -4.058594 8.574219 -4.058594 C 6.648438 -4.058594 5.144531 -5.144531 4.375 -6.789062 L 0.558594 -4.410156 C 1.925781 -1.785156 4.863281 0.28125 8.539062 0.28125 Z M 8.539062 0.28125 "/></g></g></g><g fill="#ffffff" fill-opacity="1"><g transform="translate(203.200128, 236.784858)"><g/></g></g><g fill="#ffffff" fill-opacity="1"><g transform="translate(212.830972, 236.784858)"><g><path d="M 10.988281 -21 L 2.066406 -21 L 2.066406 0 L 6.683594 0 L 6.683594 -8.503906 L 10.988281 -8.503906 C 14.523438 -8.503906 17.253906 -11.128906 17.253906 -14.664062 C 17.253906 -18.164062 14.523438 -21 10.988281 -21 Z M 10.253906 -12.320312 L 6.683594 -12.320312 L 6.683594 -16.9375 L 10.253906 -16.9375 C 11.722656 -16.9375 12.84375 -15.992188 12.84375 -14.628906 C 12.84375 -13.230469 11.722656 -12.320312 10.253906 -12.320312 Z M 10.253906 -12.320312 "/></g></g></g><g fill="#ffffff" fill-opacity="1"><g transform="translate(231.455566, 236.784858)"><g><path d="M 13.019531 -8.644531 C 15.503906 -9.378906 17.253906 -11.6875 17.253906 -14.558594 C 17.253906 -18.128906 14.59375 -21 10.988281 -21 L 2.066406 -21 L 2.066406 0 L 6.683594 0 L 6.683594 -8.121094 L 8.539062 -8.121094 L 13.71875 0 L 18.898438 0 Z M 10.289062 -11.933594 L 6.683594 -11.933594 L 6.683594 -16.902344 L 10.289062 -16.902344 C 11.757812 -16.902344 12.84375 -15.855469 12.84375 -14.417969 C 12.84375 -12.949219 11.757812 -11.933594 10.289062 -11.933594 Z M 10.289062 -11.933594 "/></g></g></g><g fill="#ffffff" fill-opacity="1"><g transform="translate(251.409976, 236.784858)"><g><path d="M 14.910156 0 L 19.84375 0 L 12.285156 -21 L 7.105469 -21 L -0.453125 0 L 4.480469 0 L 5.773438 -3.953125 L 13.613281 -3.953125 Z M 7 -7.804688 L 9.695312 -16.132812 L 12.390625 -7.804688 Z M 7 -7.804688 "/></g></g></g><g fill="#ffffff" fill-opacity="1"><g transform="translate(272.029298, 236.784858)"><g><path d="M 2.066406 0 L 8.996094 0 C 14.769531 0 19.492188 -4.691406 19.492188 -10.5 C 19.492188 -16.308594 14.769531 -21 8.996094 -21 L 2.066406 -21 Z M 6.683594 -4.09375 L 6.683594 -16.902344 L 8.960938 -16.902344 C 12.285156 -16.902344 14.875 -14.140625 14.875 -10.5 C 14.875 -6.859375 12.285156 -4.09375 8.960938 -4.09375 Z M 6.683594 -4.09375 "/></g></g></g><g fill="#ffffff" fill-opacity="1"><g transform="translate(294.048416, 236.784858)"><g><path d="M 12.074219 0.28125 C 18.058594 0.28125 22.851562 -4.550781 22.851562 -10.5 C 22.851562 -16.449219 18.058594 -21.277344 12.074219 -21.277344 C 6.125 -21.277344 1.292969 -16.449219 1.292969 -10.5 C 1.292969 -4.550781 6.125 0.28125 12.074219 0.28125 Z M 12.074219 -4.234375 C 8.539062 -4.234375 5.84375 -6.964844 5.84375 -10.5 C 5.84375 -14.035156 8.539062 -16.761719 12.074219 -16.761719 C 15.644531 -16.761719 18.339844 -14.035156 18.339844 -10.5 C 18.339844 -6.964844 15.644531 -4.234375 12.074219 -4.234375 Z M 12.074219 -4.234375 "/></g></g></g><g fill="#ffffff" fill-opacity="1"><g transform="translate(95.25982, 263.17888)"><g><path d="M 6.089844 -8.070312 L 6.089844 -9 L 1.171875 -9 L 1.171875 0 L 2.128906 0 L 2.128906 -4.035156 L 5.578125 -4.035156 L 5.578125 -4.964844 L 2.128906 -4.964844 L 2.128906 -8.070312 Z M 6.089844 -8.070312 "/></g></g></g><g fill="#ffffff" fill-opacity="1"><g transform="translate(105.639891, 263.17888)"><g><path d="M 4.425781 0.121094 C 6.390625 0.121094 7.816406 -1.183594 7.816406 -2.953125 L 7.816406 -9 L 6.855469 -9 L 6.855469 -3.105469 C 6.855469 -1.800781 5.820312 -0.839844 4.425781 -0.839844 C 3.03125 -0.839844 2.011719 -1.800781 2.011719 -3.105469 L 2.011719 -9 L 1.050781 -9 L 1.050781 -2.953125 C 1.050781 -1.183594 2.476562 0.121094 4.425781 0.121094 Z M 4.425781 0.121094 "/></g></g></g><g fill="#ffffff" fill-opacity="1"><g transform="translate(118.524959, 263.17888)"><g><path d="M 2.054688 -0.960938 L 2.054688 -9 L 1.09375 -9 L 1.09375 0 L 5.398438 0 L 5.398438 -0.960938 Z M 2.054688 -0.960938 "/></g></g></g><g fill="#ffffff" fill-opacity="1"><g transform="translate(128.080026, 263.17888)"><g><path d="M 2.054688 -0.960938 L 2.054688 -9 L 1.09375 -9 L 1.09375 0 L 5.398438 0 L 5.398438 -0.960938 Z M 2.054688 -0.960938 "/></g></g></g><g fill="#ffffff" fill-opacity="1"><g transform="translate(137.635092, 263.17888)"><g><path d="M 3.359375 0.121094 C 4.890625 0.121094 6.136719 -0.796875 6.136719 -2.371094 C 6.136719 -5.429688 1.753906 -4.679688 1.753906 -6.824219 C 1.753906 -7.726562 2.488281 -8.160156 3.328125 -8.160156 C 4.019531 -8.160156 4.589844 -7.875 4.949219 -7.363281 L 5.699219 -7.996094 C 5.203125 -8.625 4.335938 -9.121094 3.300781 -9.121094 C 1.921875 -9.121094 0.796875 -8.21875 0.796875 -6.75 C 0.796875 -3.855469 5.175781 -4.574219 5.175781 -2.339844 C 5.175781 -1.378906 4.378906 -0.839844 3.375 -0.839844 C 2.355469 -0.839844 1.621094 -1.394531 1.304688 -2.21875 L 0.433594 -1.710938 C 0.898438 -0.601562 2.023438 0.121094 3.359375 0.121094 Z M 3.359375 0.121094 "/></g></g></g><g fill="#ffffff" fill-opacity="1"><g transform="translate(148.225162, 263.17888)"><g><path d="M 6.074219 -9 L 0.136719 -9 L 0.136719 -8.039062 L 2.625 -8.039062 L 2.625 0 L 3.585938 0 L 3.585938 -8.039062 L 6.074219 -8.039062 Z M 6.074219 -9 "/></g></g></g><g fill="#ffffff" fill-opacity="1"><g transform="translate(158.455235, 263.17888)"><g><path d="M 6.523438 0 L 7.574219 0 L 4.320312 -9 L 3.253906 -9 L 0 0 L 1.050781 0 L 1.785156 -2.101562 L 5.789062 -2.101562 Z M 2.101562 -3.015625 L 3.796875 -7.859375 L 5.476562 -3.015625 Z M 2.101562 -3.015625 "/></g></g></g><g fill="#ffffff" fill-opacity="1"><g transform="translate(170.050303, 263.17888)"><g><path d="M 5.355469 0.121094 C 7.078125 0.121094 8.578125 -0.824219 9.375 -2.21875 L 8.550781 -2.683594 C 7.933594 -1.574219 6.734375 -0.839844 5.355469 -0.839844 C 3.328125 -0.839844 1.695312 -2.460938 1.695312 -4.5 C 1.695312 -6.539062 3.328125 -8.160156 5.355469 -8.160156 C 6.734375 -8.160156 7.933594 -7.425781 8.550781 -6.316406 L 9.375 -6.78125 C 8.578125 -8.175781 7.078125 -9.121094 5.355469 -9.121094 C 2.804688 -9.121094 0.734375 -7.050781 0.734375 -4.5 C 0.734375 -1.949219 2.804688 0.121094 5.355469 0.121094 Z M 5.355469 0.121094 "/></g></g></g><g fill="#ffffff" fill-opacity="1"><g transform="translate(183.940368, 263.17888)"><g><path d="M 6.464844 0 L 7.800781 0 L 3.523438 -4.84375 L 7.636719 -9 L 6.300781 -9 L 2.683594 -5.308594 L 2.054688 -5.308594 L 2.054688 -9 L 1.09375 -9 L 1.09375 0 L 2.054688 0 L 2.054688 -4.410156 L 2.699219 -4.410156 Z M 6.464844 0 "/></g></g></g><g fill="#ffffff" fill-opacity="1"><g transform="translate(195.655443, 263.17888)"><g/></g></g><g fill="#ffffff" fill-opacity="1"><g transform="translate(203.290506, 263.17888)"><g><path d="M 1.09375 0 L 3.554688 0 C 6.03125 0 8.054688 -2.011719 8.054688 -4.5 C 8.054688 -6.988281 6.03125 -9 3.554688 -9 L 1.09375 -9 Z M 2.039062 -0.960938 L 2.039062 -8.039062 L 3.539062 -8.039062 C 5.535156 -8.039062 7.09375 -6.523438 7.09375 -4.5 C 7.09375 -2.476562 5.535156 -0.960938 3.539062 -0.960938 Z M 2.039062 -0.960938 "/></g></g></g><g fill="#ffffff" fill-opacity="1"><g transform="translate(216.100564, 263.17888)"><g><path d="M 6.089844 -8.070312 L 6.089844 -9 L 1.171875 -9 L 1.171875 0 L 6.089844 0 L 6.089844 -0.929688 L 2.128906 -0.929688 L 2.128906 -4.035156 L 5.578125 -4.035156 L 5.578125 -4.964844 L 2.128906 -4.964844 L 2.128906 -8.070312 Z M 6.089844 -8.070312 "/></g></g></g><g fill="#ffffff" fill-opacity="1"><g transform="translate(227.110626, 263.17888)"><g><path d="M 6.523438 -9 L 3.796875 -1.230469 L 1.066406 -9 L 0 -9 L 3.253906 0 L 4.320312 0 L 7.574219 -9 Z M 6.523438 -9 "/></g></g></g><g fill="#ffffff" fill-opacity="1"><g transform="translate(238.705688, 263.17888)"><g><path d="M 6.089844 -8.070312 L 6.089844 -9 L 1.171875 -9 L 1.171875 0 L 6.089844 0 L 6.089844 -0.929688 L 2.128906 -0.929688 L 2.128906 -4.035156 L 5.578125 -4.035156 L 5.578125 -4.964844 L 2.128906 -4.964844 L 2.128906 -8.070312 Z M 6.089844 -8.070312 "/></g></g></g><g fill="#ffffff" fill-opacity="1"><g transform="translate(249.71575, 263.17888)"><g><path d="M 2.054688 -0.960938 L 2.054688 -9 L 1.09375 -9 L 1.09375 0 L 5.398438 0 L 5.398438 -0.960938 Z M 2.054688 -0.960938 "/></g></g></g><g fill="#ffffff" fill-opacity="1"><g transform="translate(259.270811, 263.17888)"><g><path d="M 5.355469 0.121094 C 7.921875 0.121094 9.976562 -1.949219 9.976562 -4.5 C 9.976562 -7.050781 7.921875 -9.121094 5.355469 -9.121094 C 2.804688 -9.121094 0.734375 -7.050781 0.734375 -4.5 C 0.734375 -1.949219 2.804688 0.121094 5.355469 0.121094 Z M 5.355469 -0.839844 C 3.328125 -0.839844 1.695312 -2.460938 1.695312 -4.5 C 1.695312 -6.539062 3.328125 -8.160156 5.355469 -8.160156 C 7.394531 -8.160156 9.015625 -6.539062 9.015625 -4.5 C 9.015625 -2.460938 7.394531 -0.839844 5.355469 -0.839844 Z M 5.355469 -0.839844 "/></g></g></g><g fill="#ffffff" fill-opacity="1"><g transform="translate(274.015881, 263.17888)"><g><path d="M 4.320312 -9 L 1.09375 -9 L 1.09375 0 L 2.054688 0 L 2.054688 -4.003906 L 4.320312 -4.003906 C 5.714844 -4.003906 6.824219 -5.101562 6.824219 -6.496094 C 6.824219 -7.875 5.714844 -9 4.320312 -9 Z M 4.230469 -4.921875 L 2.054688 -4.921875 L 2.054688 -8.070312 L 4.230469 -8.070312 C 5.128906 -8.070312 5.863281 -7.441406 5.863281 -6.480469 C 5.863281 -5.488281 5.128906 -4.921875 4.230469 -4.921875 Z M 4.230469 -4.921875 "/></g></g></g><g fill="#ffffff" fill-opacity="1"><g transform="translate(285.11594, 263.17888)"><g><path d="M 6.089844 -8.070312 L 6.089844 -9 L 1.171875 -9 L 1.171875 0 L 6.089844 0 L 6.089844 -0.929688 L 2.128906 -0.929688 L 2.128906 -4.035156 L 5.578125 -4.035156 L 5.578125 -4.964844 L 2.128906 -4.964844 L 2.128906 -8.070312 Z M 6.089844 -8.070312 "/></g></g></g><g fill="#ffffff" fill-opacity="1"><g transform="translate(296.126002, 263.17888)"><g><path d="M 4.738281 -4.109375 C 5.925781 -4.273438 6.824219 -5.265625 6.824219 -6.480469 C 6.824219 -7.890625 5.699219 -9 4.320312 -9 L 1.09375 -9 L 1.09375 0 L 2.054688 0 L 2.054688 -4.066406 L 3.75 -4.066406 L 6.300781 0 L 7.394531 0 Z M 2.054688 -4.980469 L 2.054688 -8.039062 L 4.261719 -8.039062 C 5.160156 -8.039062 5.863281 -7.410156 5.863281 -6.511719 C 5.863281 -5.59375 5.175781 -4.980469 4.261719 -4.980469 Z M 2.054688 -4.980469 "/></g></g></g></svg>